<svg xmlns="http://www.w3.org/2000/svg" viewBox="0 -10 22 10" width="100%" height="100%"><g ><line stroke="black" stroke-width="0.01" x1="0" y1="-10" x2="0" y2="10"/><line stroke="black" stroke-width="0.01" x1="5" y1="-10" x2="5" y2="10"/><line stroke="black" stroke-width="0.01" x1="10" y1="-10" x2="10" y2="10"/><line stroke="black" stroke-width="0.01" x1="15" y1="-10" x2="15" y2="10"/><line stroke="black" stroke-width="0.01" x1="20" y1="-10" x2="20" y2="10"/><line stroke="black" stroke-width="0.01" x1="0" y1="-10" x2="22" y2="-10"/><line stroke="black" stroke-width="0.01" x1="0" y1="-5" x2="22" y2="-5"/><line stroke="black" stroke-width="0.01" x1="0" y1="0" x2="22" y2="0"/><line stroke="black" stroke-width="0.01" x1="0" y1="5" x2="22" y2="5"/><line stroke="black" stroke-width="0.01" x1="0" y1="10" x2="22" y2="10"/><line stroke="black" stroke-width="0.01" x1="0" y1="15" x2="22" y2="15"/></g><g class="room"><rect stroke="black" stroke-width="0.1" x="0" y="-3.5" width="2.6" height="3.6" fill="red"/><text onmouseover="showTitle(evt)" text-anchor="middle" font-size="0.3" class="title" x="1.3" y="-1.7">Maximilians værelse</text></g><g ><line stroke="black" stroke-width="0.01" x1="0" y1="-10" x2="0" y2="10"/><line stroke="black" stroke-width="0.01" x1="5" y1="-10" x2="5" y2="10"/><line stroke="black" stroke-width="0.01" x1="10" y1="-10" x2="10" y2="10"/><line stroke="black" stroke-width="0.01" x1="15" y1="-10" x2="15" y2="10"/><line stroke="black" stroke-width="0.01" x1="20" y1="-10" x2="20" y2="10"/><line stroke="black" stroke-width="0.01" x1="0" y1="-10" x2="22" y2="-10"/><line stroke="black" stroke-width="0.01" x1="0" y1="-5" x2="22" y2="-5"/><line stroke="black" stroke-width="0.01" x1="0" y1="0" x2="22" y2="0"/><line stroke="black" stroke-width="0.01" x1="0" y1="5" x2="22" y2="5"/><line stroke="black" stroke-width="0.01" x1="0" y1="10" x2="22" y2="10"/><line stroke="black" stroke-width="0.01" x1="0" y1="15" x2="22" y2="15"/></g><g class="room"><rect stroke="black" stroke-width="0.1" x="2.6" y="-3.5" width="2.6" height="3.6" fill="none"/><text onmouseover="showTitle(evt)" text-anchor="middle" font-size="0.3" class="title" x="3.9" y="-1.7">Hannibals værelse</text></g><g ><line stroke="black" stroke-width="0.01" x1="0" y1="-10" x2="0" y2="10"/><line stroke="black" stroke-width="0.01" x1="5" y1="-10" x2="5" y2="10"/><line stroke="black" stroke-width="0.01" x1="10" y1="-10" x2="10" y2="10"/><line stroke="black" stroke-width="0.01" x1="15" y1="-10" x2="15" y2="10"/><line stroke="black" stroke-width="0.01" x1="20" y1="-10" x2="20" y2="10"/><line stroke="black" stroke-width="0.01" x1="0" y1="-10" x2="22" y2="-10"/><line stroke="black" stroke-width="0.01" x1="0" y1="-5" x2="22" y2="-5"/><line stroke="black" stroke-width="0.01" x1="0" y1="0" x2="22" y2="0"/><line stroke="black" stroke-width="0.01" x1="0" y1="5" x2="22" y2="5"/><line stroke="black" stroke-width="0.01" x1="0" y1="10" x2="22" y2="10"/><line stroke="black" stroke-width="0.01" x1="0" y1="15" x2="22" y2="15"/></g><g class="room"><rect stroke="black" stroke-width="0.1" x="5.2" y="-3.9" width="7.8999999999999995" height="4.0" fill="blue"/><text onmouseover="showTitle(evt)" text-anchor="middle" font-size="0.3" class="title" x="9.15" y="-1.9">Alrum</text></g><g ><line stroke="black" stroke-width="0.01" x1="0" y1="-10" x2="0" y2="10"/><line stroke="black" stroke-width="0.01" x1="5" y1="-10" x2="5" y2="10"/><line stroke="black" stroke-width="0.01" x1="10" y1="-10" x2="10" y2="10"/><line stroke="black" stroke-width="0.01" x1="15" y1="-10" x2="15" y2="10"/><line stroke="black" stroke-width="0.01" x1="20" y1="-10" x2="20" y2="10"/><line stroke="black" stroke-width="0.01" x1="0" y1="-10" x2="22" y2="-10"/><line stroke="black" stroke-width="0.01" x1="0" y1="-5" x2="22" y2="-5"/><line stroke="black" stroke-width="0.01" x1="0" y1="0" x2="22" y2="0"/><line stroke="black" stroke-width="0.01" x1="0" y1="5" x2="22" y2="5"/><line stroke="black" stroke-width="0.01" x1="0" y1="10" x2="22" y2="10"/><line stroke="black" stroke-width="0.01" x1="0" y1="15" x2="22" y2="15"/></g><g class="room"><rect stroke="black" stroke-width="0.1" x="5.2" y="-7.5" width="2.8000000000000003" height="3.6" fill="green"/><text onmouseover="showTitle(evt)" text-anchor="middle" font-size="0.3" class="title" x="6.6000000000000005" y="-5.7">Køkken</text></g><g ><line stroke="black" stroke-width="0.01" x1="0" y1="-10" x2="0" y2="10"/><line stroke="black" stroke-width="0.01" x1="5" y1="-10" x2="5" y2="10"/><line stroke="black" stroke-width="0.01" x1="10" y1="-10" x2="10" y2="10"/><line stroke="black" stroke-width="0.01" x1="15" y1="-10" x2="15" y2="10"/><line stroke="black" stroke-width="0.01" x1="20" y1="-10" x2="20" y2="10"/><line stroke="black" stroke-width="0.01" x1="0" y1="-10" x2="22" y2="-10"/><line stroke="black" stroke-width="0.01" x1="0" y1="-5" x2="22" y2="-5"/><line stroke="black" stroke-width="0.01" x1="0" y1="0" x2="22" y2="0"/><line stroke="black" stroke-width="0.01" x1="0" y1="5" x2="22" y2="5"/><line stroke="black" stroke-width="0.01" x1="0" y1="10" x2="22" y2="10"/><line stroke="black" stroke-width="0.01" x1="0" y1="15" x2="22" y2="15"/></g><g class="room"><rect stroke="black" stroke-width="0.1" x="0" y="-5.1" width="5.199999999999999" height="1.6" fill="yellow"/><text onmouseover="showTitle(evt)" text-anchor="middle" font-size="0.3" class="title" x="2.5999999999999996" y="-4.3">Gang</text></g><g ><line stroke="black" stroke-width="0.01" x1="0" y1="-10" x2="0" y2="10"/><line stroke="black" stroke-width="0.01" x1="5" y1="-10" x2="5" y2="10"/><line stroke="black" stroke-width="0.01" x1="10" y1="-10" x2="10" y2="10"/><line stroke="black" stroke-width="0.01" x1="15" y1="-10" x2="15" y2="10"/><line stroke="black" stroke-width="0.01" x1="20" y1="-10" x2="20" y2="10"/><line stroke="black" stroke-width="0.01" x1="0" y1="-10" x2="22" y2="-10"/><line stroke="black" stroke-width="0.01" x1="0" y1="-5" x2="22" y2="-5"/><line stroke="black" stroke-width="0.01" x1="0" y1="0" x2="22" y2="0"/><line stroke="black" stroke-width="0.01" x1="0" y1="5" x2="22" y2="5"/><line stroke="black" stroke-width="0.01" x1="0" y1="10" x2="22" y2="10"/><line stroke="black" stroke-width="0.01" x1="0" y1="15" x2="22" y2="15"/></g><g class="room"><rect stroke="black" stroke-width="0.1" x="13.1" y="-3.9" width="5.1" height="4.0" fill="#ffff00"/><text onmouseover="showTitle(evt)" text-anchor="middle" font-size="0.3" class="title" x="15.65" y="-1.9">Stue</text></g></svg>